<svg width="40" height="40" viewBox="0 0 40 40" fill="none" xmlns="http://www.w3.org/2000/svg">
<path d="M29.5613 31.0301H27.0122L10.372 9.63659H13.1073L29.5613 31.0301Z" fill="#101010"/>
<path fill-rule="evenodd" clip-rule="evenodd" d="M4 0C1.79086 0 0 1.79086 0 4V36C0 38.2091 1.79086 40 4 40H36C38.2091 40 40 38.2091 40 36V4C40 1.79086 38.2091 0 36 0H4ZM33.227 7.07113H28.6268L21.0465 15.5922L14.4924 7.07113H5L16.3419 21.6558L5.5924 33.7378H10.1954L18.4918 24.4155L25.7427 33.7378H35L23.1768 18.3668L33.227 7.07113Z" fill="#101010"/>
</svg>
